<svg aria-hidden="true" style="position: absolute; width: 0; height: 0; overflow: hidden;" version="1.1" xmlns="http://www.w3.org/2000/svg" xmlns:xlink="http://www.w3.org/1999/xlink">
<defs>
<symbol id="icon-telegram" viewBox="0 0 32 32">
<path d="M26.51 7.337c-0.766 0.038-1.773 0.393-2.483 0.734l-0.018 0.008-0.018 0.007c-5.923 2.428-18.354 7.53-20.719 8.523-0.558 0.234-0.894 0.442-1.086 0.605-0.104 0.089-0.152 0.152-0.173 0.186 0.029 0.031 0.078 0.071 0.145 0.107 1.137 0.362 3.638 1.113 5.053 1.385 1.278 0.245 2.192-0.218 2.418-0.399l0.027-0.022 10.634-6.804 0.063-0.024c0.205-0.079 0.392-0.138 0.56-0.172 0.158-0.033 0.352-0.055 0.546-0.015 0.22 0.046 0.472 0.184 0.599 0.473 0.107 0.244 0.068 0.476 0.035 0.604-0.068 0.258-0.23 0.51-0.362 0.692-0.145 0.201-0.315 0.399-0.467 0.562l-0.017 0.018-0.018 0.017c-1.419 1.303-4.695 4.329-6.465 6.029-0.845 0.811-1.058 1.332-1.092 1.58-0.018 0.133 0.013 0.183 0.026 0.197l0.032 0.018 0.031 0.021c0.916 0.645 3.647 2.51 7.192 4.779 1.707 1.093 2.547 0.956 2.919 0.732 0.423-0.255 0.655-0.853 0.682-1.444l0.002-0.041 0.007-0.041c0.868-5.058 2.623-15.606 2.768-17.694 0.026-0.374-0.082-0.467-0.127-0.501-0.093-0.069-0.303-0.138-0.692-0.119zM13.704 21.631c0 0-0.001-0.002-0.006-0.004 0.003 0.003 0.006 0.004 0.006 0.004zM27.998 6.385c0.507 0.377 0.71 0.972 0.662 1.664-0.151 2.169-1.915 12.766-2.777 17.788-0.044 0.77-0.355 1.898-1.323 2.482-1.038 0.626-2.48 0.43-4.326-0.751-3.529-2.258-6.258-4.121-7.216-4.794-0.441-0.262-0.764-0.805-0.668-1.522 0.093-0.687 0.558-1.469 1.49-2.363 1.333-1.279 3.506-3.299 5.111-4.781l-8.519 5.451c-0.534 0.409-1.822 0.959-3.472 0.643-1.525-0.293-4.15-1.086-5.258-1.441l-0.044-0.014-0.041-0.020c-0.215-0.103-0.461-0.266-0.65-0.5-0.197-0.243-0.35-0.592-0.285-1.009 0.063-0.4 0.309-0.739 0.642-1.021 0.335-0.284 0.806-0.554 1.432-0.817 2.37-0.995 14.785-6.091 20.711-8.52 0.77-0.368 1.956-0.805 2.976-0.855 0.508-0.025 1.094 0.039 1.553 0.38z"></path>
</symbol>
<symbol id="icon-facebook" viewBox="0 0 32 32">
<path d="M14.815 4.148c1.375-1.375 3.241-2.148 5.185-2.148h4c0.368 0 0.667 0.298 0.667 0.667v5.333c0 0.368-0.299 0.667-0.667 0.667h-4c-0.177 0-0.346 0.070-0.471 0.195s-0.195 0.295-0.195 0.471v3.333h4.667c0.205 0 0.399 0.095 0.525 0.256s0.171 0.373 0.121 0.572l-1.333 5.333c-0.074 0.297-0.341 0.505-0.647 0.505h-3.333v10c0 0.368-0.299 0.667-0.667 0.667h-5.333c-0.368 0-0.667-0.299-0.667-0.667v-10h-3.333c-0.368 0-0.667-0.299-0.667-0.667v-5.333c0-0.368 0.298-0.667 0.667-0.667h3.333v-3.333c0-1.945 0.773-3.81 2.148-5.185zM20 3.333c-1.591 0-3.117 0.632-4.243 1.757s-1.757 2.651-1.757 4.243v4c0 0.368-0.299 0.667-0.667 0.667h-3.333v4h3.333c0.368 0 0.667 0.299 0.667 0.667v10h4v-10c0-0.368 0.299-0.667 0.667-0.667h3.479l1-4h-4.479c-0.368 0-0.667-0.299-0.667-0.667v-4c0-0.53 0.211-1.039 0.586-1.414s0.884-0.586 1.414-0.586h3.333v-4h-3.333z"></path>
</symbol>
<symbol id="icon-instagram" viewBox="0 0 32 32">
<path d="M9.333 3.333c-3.314 0-6 2.686-6 6v13.333c0 3.314 2.686 6 6 6h13.333c3.314 0 6-2.686 6-6v-13.333c0-3.314-2.686-6-6-6h-13.333zM2 9.333c0-4.050 3.283-7.333 7.333-7.333h13.333c4.050 0 7.333 3.283 7.333 7.333v13.333c0 4.050-3.283 7.333-7.333 7.333h-13.333c-4.050 0-7.333-3.283-7.333-7.333v-13.333z"></path>
<path d="M16.742 11.326c-0.971-0.144-1.963 0.022-2.834 0.474s-1.578 1.167-2.019 2.044c-0.441 0.877-0.595 1.87-0.439 2.839s0.613 1.864 1.308 2.558c0.694 0.694 1.589 1.152 2.558 1.308s1.963 0.002 2.839-0.439c0.877-0.441 1.592-1.148 2.044-2.019s0.618-1.863 0.474-2.834c-0.147-0.99-0.608-1.907-1.316-2.615s-1.625-1.169-2.615-1.316zM13.294 10.617c1.12-0.581 2.395-0.794 3.643-0.609 1.273 0.189 2.452 0.782 3.363 1.692s1.504 2.089 1.693 3.363c0.185 1.248-0.028 2.523-0.609 3.643s-1.501 2.029-2.628 2.596c-1.127 0.567-2.405 0.765-3.651 0.564s-2.397-0.789-3.289-1.681-1.481-2.043-1.681-3.289c-0.2-1.246-0.003-2.523 0.564-3.651s1.476-2.047 2.596-2.628z"></path>
<path d="M22.667 8.667c0-0.368 0.299-0.667 0.667-0.667h0.013c0.368 0 0.667 0.298 0.667 0.667s-0.299 0.667-0.667 0.667h-0.013c-0.368 0-0.667-0.298-0.667-0.667z"></path>
</symbol>
</defs>
</svg>
